# xmcd
#
# Track frame offsets:
#	150
#	85227
#	113377
#	157569
#	217914
#	254435
#
# Disc length: 3817 seconds
# Revision: 0
# Processed by: cddbd v1.5.2PL0 Copyright (c) Steve Scherf et al.
# Submitted via: dBpowerAMP V12.0
#
DISCID=390ee706
DTITLE=Henryk Szeryng - 23 Tchaikovsky and Mendelsshon Violin Concertos
DYEAR=1977
DGENRE=Classical
TTITLE0=Violin Concerto in D Major, Op. 35: 1. Allegro moderato
TTITLE1=Violin Concerto in D Major, Op. 35:  2. Canzonetta (Andante)
TTITLE2=Violin Concerto in D Major, Op. 35: 3. Finale (Allegro vivacissimo)
TTITLE3=Violin Concerto in E Minor, Op. 64: 1. Allegro molto appassionato
TTITLE4=Violin Concerto in E Minor, Op. 64: 2. Andante
TTITLE5=Violin Concerto in E Minor, Op. 64: 3. Allegro non troppo
EXTD=
EXTT0=
EXTT1=
EXTT2=
EXTT3=
EXTT4=
EXTT5=
PLAYORDER=
